<svg xmlns="http://www.w3.org/2000/svg" width="153" height="40" viewBox="0 0 153 40">
    <path fill="#fff" fill-rule="nonzero" d="M86.988 25.292a3.768 3.768 0 0 1 3.143 1.698v-1.457h2.543v9.235a9.296 9.296 0 0 1-.299 2.723 3.427 3.427 0 0 1-.84 1.415 3.771 3.771 0 0 1-1.449.803 7.641 7.641 0 0 1-1.985.291l-.288-.001c-1.732 0-2.967-.299-3.705-.895a2.822 2.822 0 0 1-1.095-2.277 1.742 1.742 0 0 1-.003-.325l3.108.377c.01.287.14.557.357.745a2.02 2.02 0 0 0 1.218.293 3.158 3.158 0 0 0 1.597-.326 1.3 1.3 0 0 0 .54-.686c.105-.407.148-.829.126-1.25v-1.509c-.812 1.113-1.837 1.668-3.075 1.666a3.781 3.781 0 0 1-3.28-1.753 5.98 5.98 0 0 1-.952-3.205l.004-.243c0-1.725.415-3.042 1.244-3.953a4.004 4.004 0 0 1 3.091-1.366zm-23.403.016c1.528 0 2.734.505 3.617 1.516.884 1.01 1.306 2.56 1.267 4.645h-6.82a2.758 2.758 0 0 0 .65 1.884c.401.44.973.686 1.568.673.387.014.767-.11 1.072-.348.338-.296.576-.69.679-1.129l2.708.456a4.466 4.466 0 0 1-1.65 2.277 4.842 4.842 0 0 1-2.588.783l-.23-.003c-1.786 0-3.109-.584-3.968-1.753a5.915 5.915 0 0 1-1.018-3.294l.004-.252c0-1.706.445-3.042 1.335-4.007a4.387 4.387 0 0 1 3.374-1.448zM6.978 6.184c8.285-7.889 21.166-8.275 29.908-.898a21.97 21.97 0 0 0-4.592.326A19.459 19.459 0 0 0 8.277 8.939c-6.184 6.494-7.141 16.364-2.358 23.92l.173.27h4.54c-1.916-2.93-2.92-6.002-2.988-9.177-.078-6.946 3.417-10.473 4.17-11.153l.143-.122h9.683l-.044.08c-.251.48-1.449 3.059-.297 6.63.318.84.723 1.643 1.208 2.398a14.685 14.685 0 0 1 2.819-9.014 14.969 14.969 0 0 1 9.553-5.735 25.405 25.405 0 0 1 3.803-.302c-.92.791-1.731 1.702-2.41 2.71A18.233 18.233 0 0 0 34 14.735c-.39 1.533-.301 3.047-.16 4.765l.1 1.207c.184 2.355.27 5.02-.72 8.322-.428 1.414-1.108 2.773-2.057 4.098h7.607a19.52 19.52 0 0 0-.75-22.403c.429-.797.962-1.532 1.587-2.185l.231-.235.212.266a22.5 22.5 0 0 1 .443 27.212l-.206.276H4.566c-6.912-9.12-5.873-21.987 2.412-29.875zm25.147 4.733a11.72 11.72 0 0 0-4.478 3.601c-1.604 2.163-2.448 5.865-2.321 8.832a11.819 11.819 0 0 0 1.022 4.15 14.855 14.855 0 0 1-2.552-.89l-.23-.122c-1.482-.806-3.545-2.295-5.005-6.06a11.706 11.706 0 0 1-.721-4.466l.017-.35H13.18l-.176.209c-1.264 1.522-2.54 3.487-2.442 8.066.072 3.18 1.302 6.273 3.678 9.241.33.408.67.806 1.023 1.192l.422.452.378.386.952.898h6.972l.117-.078a29.439 29.439 0 0 0 2.055-1.683l.38-.35c.187-.177.371-.357.552-.54l.234-.24c1.563-1.636 2.583-3.28 3.091-4.978.835-2.77.784-5.048.614-7.2l-.075-.874c-.169-2.05-.33-3.985.215-6.106.262-1.046.58-2.078.954-3.09zm41.332 14.385c1.407 0 2.451.228 3.133.686a3.507 3.507 0 0 1 1.413 2.036l-2.562.475a1.59 1.59 0 0 0-.624-.92 2.27 2.27 0 0 0-1.299-.326 2.918 2.918 0 0 0-1.536.303.65.65 0 0 0-.324.553c.003.2.105.383.272.491.206.154.839.358 1.897.617l.64.15c1.445.333 2.458.733 3.033 1.211.54.475.85 1.158.854 1.873l-.004.154a3.105 3.105 0 0 1-1.178 2.43c-.786.68-1.95 1.02-3.491 1.018-1.4 0-2.508-.284-3.322-.853a3.904 3.904 0 0 1-1.601-2.312l2.728-.417c.082.474.332.903.704 1.207a2.39 2.39 0 0 0 1.49.41c.556.04 1.11-.096 1.585-.387a.856.856 0 0 0 .358-.726.71.71 0 0 0-.192-.514 2.125 2.125 0 0 0-.91-.357l-.553-.126c-1.873-.435-3.078-.835-3.616-1.202a2.652 2.652 0 0 1-1.217-2.316 2.855 2.855 0 0 1 1.052-2.247c.703-.61 1.793-.913 3.27-.911zm-14.983-3.683v14.203H55.95v-1.51c-.381.55-.89.996-1.484 1.302a3.784 3.784 0 0 1-1.728.432 3.92 3.92 0 0 1-3.033-1.428c-.842-.954-1.262-2.283-1.26-3.988 0-1.735.41-3.061 1.228-3.978a4 4 0 0 1 3.104-1.36 3.842 3.842 0 0 1 2.978 1.434V21.62h2.718zm23.487 3.914v10.289h-2.714v-10.29h2.714zm17.805-.231a4.053 4.053 0 0 1 1.646.325c.44.174.829.458 1.127.826.256.34.437.73.533 1.145.091.483.142.972.15 1.463v6.76h-2.719v-5.253a8.104 8.104 0 0 0-.175-2.156 1.512 1.512 0 0 0-.565-.758 1.602 1.602 0 0 0-.942-.274 2.199 2.199 0 0 0-1.27.387 1.951 1.951 0 0 0-.766 1.028 8.847 8.847 0 0 0-.208 2.365v4.659H93.86V25.533h2.523v1.512a4.106 4.106 0 0 1 3.384-1.743zm-46.28 2.082a2.048 2.048 0 0 0-1.624.77c-.428.514-.643 1.281-.643 2.3 0 1.1.152 1.895.455 2.385a2.052 2.052 0 0 0 1.838 1.067 2 2 0 0 0 1.598-.8c.433-.534.649-1.33.649-2.388 0-1.184-.211-2.033-.65-2.554-.388-.5-.99-.79-1.623-.78zm34.187 0a2.002 2.002 0 0 0-1.623.76c-.407.508-.61 1.281-.61 2.32 0 1.084.21 1.884.632 2.398.373.485.951.766 1.562.76a2.161 2.161 0 0 0 1.682-.777c.46-.52.689-1.291.689-2.313 0-1.063-.221-1.857-.65-2.374a2.093 2.093 0 0 0-1.682-.774zm-23.922 0a1.888 1.888 0 0 0-1.471.65 2.514 2.514 0 0 0-.585 1.763h4.075a2.631 2.631 0 0 0-.607-1.799 1.869 1.869 0 0 0-1.412-.614zm18.21-5.765v2.518h-2.714V21.62h2.714zm64.615-16.772c1.844 0 3.214.3 4.11.901a4.616 4.616 0 0 1 1.852 2.668l-3.361.624a2.098 2.098 0 0 0-.819-1.207 2.99 2.99 0 0 0-1.72-.42c-.938 0-1.61.132-2.017.394a.846.846 0 0 0-.406.726.79.79 0 0 0 .357.65c.279.206 1.154.485 2.626.838l.702.164c1.899.432 3.225.962 3.978 1.59A3.301 3.301 0 0 1 153 14.242l-.005.19a4.086 4.086 0 0 1-1.398 3.065l-.15.125c-1.033.89-2.56 1.334-4.58 1.334-1.835 0-3.288-.373-4.357-1.119a5.143 5.143 0 0 1-2.098-3.041l3.572-.547c.11.622.438 1.184.926 1.584a3.14 3.14 0 0 0 1.948.54c.922 0 1.615-.169 2.078-.507.306-.22.482-.577.471-.953a.931.931 0 0 0-.253-.674 2.787 2.787 0 0 0-1.192-.471l-.599-.136c-2.429-.56-4.02-1.076-4.773-1.548l-.087-.057a3.479 3.479 0 0 1-1.598-2.864v-.174a3.747 3.747 0 0 1 1.384-2.947c.92-.797 2.351-1.194 4.287-1.194zm-12.152 0c1.492 0 2.626.166 3.402.498l.15.068a3.574 3.574 0 0 1 1.654 1.435c.324.579.474 1.646.474 3.194l-.04 4.17c-.021.878.036 1.755.173 2.622.14.63.358 1.238.65 1.812h-3.53c-.081-.203-.176-.49-.288-.861l-.152-.524a1.247 1.247 0 0 0-.031-.088 6.4 6.4 0 0 1-1.949 1.333 5.587 5.587 0 0 1-2.218.446c-1.385 0-2.478-.377-3.28-1.132a3.767 3.767 0 0 1-1.21-2.675v-.191a3.85 3.85 0 0 1 .545-2.04 3.574 3.574 0 0 1 1.53-1.372c.793-.34 1.62-.592 2.467-.753l.364-.064a19.41 19.41 0 0 0 3.462-.875v-.364c0-.688-.17-1.178-.507-1.47-.338-.293-.976-.439-1.916-.436-.521-.031-1.04.1-1.484.374-.413.34-.71.798-.854 1.314l-3.247-.586a5.053 5.053 0 0 1 1.877-2.895c.89-.627 2.209-.94 3.958-.94zM83 4.847c1.49 0 2.624.166 3.402.498l.15.068a3.541 3.541 0 0 1 1.64 1.435c.326.579.478 1.646.478 3.194l-.023 4.17c-.022.878.036 1.755.173 2.622.139.63.357 1.238.649 1.812h-3.54l-.084-.231c-.06-.173-.127-.383-.2-.63l-.152-.52a1.596 1.596 0 0 0-.031-.092 6.439 6.439 0 0 1-1.949 1.333 5.587 5.587 0 0 1-2.217.446c-1.39 0-2.483-.377-3.28-1.132a3.767 3.767 0 0 1-1.205-2.866 3.85 3.85 0 0 1 .546-2.04 3.574 3.574 0 0 1 1.526-1.372 12.058 12.058 0 0 1 2.47-.753l.365-.064c1.179-.185 2.339-.478 3.465-.875v-.364c0-.688-.17-1.178-.507-1.47-.325-.29-.974-.436-1.916-.436-.521-.032-1.04.099-1.484.374a2.603 2.603 0 0 0-.864 1.314l-3.247-.586a5.053 5.053 0 0 1 1.877-2.895c.885-.627 2.205-.94 3.958-.94zm24.998 0c1.492 0 2.626.166 3.402.498l.15.068a3.574 3.574 0 0 1 1.644 1.435c.324.579.474 1.646.474 3.194l-.017 4.17c-.022.878.034 1.755.17 2.622a7.54 7.54 0 0 0 .649 1.812h-3.54a13.09 13.09 0 0 1-.344-1.054l-.075-.267a1.814 1.814 0 0 0-.052-.152 6.426 6.426 0 0 1-1.948 1.333 5.612 5.612 0 0 1-2.221.446c-1.386 0-2.479-.377-3.28-1.132a3.767 3.767 0 0 1-1.202-2.675v-.191a3.85 3.85 0 0 1 .546-2.04 3.574 3.574 0 0 1 1.53-1.372c.794-.34 1.622-.592 2.47-.753l.365-.064a19.41 19.41 0 0 0 3.461-.875v-.364c0-.688-.169-1.178-.506-1.47-.338-.293-.977-.439-1.916-.436-.522-.031-1.04.1-1.484.374a2.603 2.603 0 0 0-.864 1.314l-3.247-.586a5.053 5.053 0 0 1 1.877-2.895c.89-.627 2.209-.94 3.958-.94zM71.7.202a4.866 4.866 0 0 1 1.948.768 4.788 4.788 0 0 1 1.43 1.558c.383.661.58 1.414.57 2.18a4.418 4.418 0 0 1-2.613 4.04 4.91 4.91 0 0 1 2.614 1.69c.611.807.933 1.796.912 2.808a5.567 5.567 0 0 1-.59 2.472 4.952 4.952 0 0 1-1.625 1.916c-.679.464-1.456.761-2.268.871l-.245.027c-.628.07-2.138.112-4.53.127h-6.329V.016h7.433c1.1-.023 2.202.04 3.293.186zM122.96 4.87c.74-.01 1.475.135 2.157.426a3.572 3.572 0 0 1 1.477 1.086c.333.438.57.941.695 1.477a11 11 0 0 1 .198 2.401l.013 8.386h-3.572V11.76c0-1.458-.076-2.4-.227-2.827a1.974 1.974 0 0 0-.744-.999 2.111 2.111 0 0 0-1.237-.354 2.85 2.85 0 0 0-1.66.507 2.56 2.56 0 0 0-1.003 1.337c-.171.527-.262 1.473-.272 2.839v6.383h-3.573V5.153h3.31v1.994c1.175-1.518 2.655-2.277 4.438-2.277zM46.686.016l4.705 13.79L55.947.016h3.982l-6.66 18.63H49.26L42.614.016h4.072zm47.008 0v9.886l4.176-4.75h4.387l-4.615 4.923 4.936 8.565h-3.845l-3.386-6.054-1.663 1.74v4.32h-3.562V.016h3.572zm16.486 12.15c-.713.22-1.437.402-2.17.547a6.516 6.516 0 0 0-1.947.621 1.487 1.487 0 0 0-.699 1.259c-.006.493.197.966.559 1.301.38.367.892.564 1.419.547a3.078 3.078 0 0 0 1.838-.635c.41-.285.713-.7.86-1.177a7.003 7.003 0 0 0 .14-1.74v-.723zm-24.997 0c-.714.219-1.438.401-2.17.547a6.584 6.584 0 0 0-1.948.621 1.497 1.497 0 0 0-.698 1.259c-.005.493.198.965.558 1.301.38.368.894.565 1.423.547a3.085 3.085 0 0 0 1.838-.635c.408-.286.71-.7.857-1.177a7.169 7.169 0 0 0 .14-1.74v-.723zm51.423 0a22.05 22.05 0 0 1-2.172.547 6.584 6.584 0 0 0-1.948.615 1.494 1.494 0 0 0-.695 1.258c-.006.493.195.966.555 1.302.384.372.904.57 1.439.546a3.078 3.078 0 0 0 1.837-.634c.4-.288.695-.7.838-1.171a7.003 7.003 0 0 0 .14-1.74l.006-.723zm-68.58-1.639h-3.298v4.98h3.478c.86.026 1.72-.012 2.575-.114a2.324 2.324 0 0 0 1.364-.745 2.28 2.28 0 0 0 .526-1.58 2.43 2.43 0 0 0-.406-1.422 2.306 2.306 0 0 0-1.176-.853c-.482-.17-1.503-.259-3.063-.266zm-44.61-.361h-8.33C20.456 6.62 26.3 7.267 27.34 7.384a13.125 13.125 0 0 0-3.66 2.518l-.263.264h-8.33 8.33zM64.728 3.12v4.307l3.148-.002c.924-.005 1.559-.022 1.903-.05l.138-.013a2.485 2.485 0 0 0 1.52-.667c.377-.387.577-.914.552-1.454a2.048 2.048 0 0 0-.477-1.406 2.165 2.165 0 0 0-1.254-.634l-.159-.016c-.285-.032-.972-.051-2.067-.059l-3.304-.006z"/>
</svg>
